<svg width="32" height="32" viewBox="0 0 32 32" fill="none" xmlns="http://www.w3.org/2000/svg">
<path d="M23.1688 0H8.8306C3.96141 0 0 3.9616 0 8.83079V23.169C0 28.0384 3.96141 31.9998 8.8306 31.9998H23.1688C28.0384 31.9998 31.9998 28.0382 31.9998 23.169V8.83079C32 3.9616 28.0384 0 23.1688 0ZM29.1608 23.169C29.1608 26.4729 26.4729 29.1606 23.169 29.1606H8.8306C5.52693 29.1608 2.83918 26.4729 2.83918 23.169V8.83079C2.83918 5.52712 5.52693 2.83918 8.8306 2.83918H23.1688C26.4727 2.83918 29.1606 5.52712 29.1606 8.83079V23.169H29.1608Z" fill="white"/>
<path d="M15.9999 7.75488C11.4533 7.75488 7.75439 11.4538 7.75439 16.0004C7.75439 20.5469 11.4533 24.2456 15.9999 24.2456C20.5466 24.2456 24.2455 20.5469 24.2455 16.0004C24.2455 11.4538 20.5466 7.75488 15.9999 7.75488ZM15.9999 21.4062C13.019 21.4062 10.5936 18.9812 10.5936 16.0002C10.5936 13.0191 13.0188 10.5939 15.9999 10.5939C18.9811 10.5939 21.4063 13.0191 21.4063 16.0002C21.4063 18.9812 18.9809 21.4062 15.9999 21.4062Z" fill="white"/>
<path d="M24.5913 5.34741C24.0443 5.34741 23.507 5.56887 23.1206 5.95689C22.7324 6.34302 22.5093 6.88057 22.5093 7.42948C22.5093 7.97668 22.7326 8.51404 23.1206 8.90206C23.5068 9.28819 24.0443 9.51154 24.5913 9.51154C25.1402 9.51154 25.6759 9.28819 26.0639 8.90206C26.4519 8.51404 26.6734 7.97649 26.6734 7.42948C26.6734 6.88057 26.4519 6.34302 26.0639 5.95689C25.6778 5.56887 25.1402 5.34741 24.5913 5.34741Z" fill="white"/>
</svg>
